<svg width="26" height="26" viewBox="0 0 26 26" fill="none" xmlns="http://www.w3.org/2000/svg">
<path d="M15.719 2.89526e-06C13.8277 -0.000969361 11.975 0.53467 10.376 1.5447C8.77706 2.55473 7.49746 3.9977 6.68589 5.70598C5.87431 7.41426 5.56407 9.31775 5.7912 11.1953C6.01833 13.0729 6.7735 14.8475 7.969 16.313L0 24.281L1.438 25.719L9.407 17.75C10.6485 18.7624 12.1151 19.4617 13.6833 19.789C15.2515 20.1164 16.8754 20.0621 18.4183 19.6309C19.9611 19.1997 21.3778 18.4042 22.5491 17.3112C23.7203 16.2183 24.6119 14.8599 25.1486 13.3505C25.6854 11.8411 25.8516 10.2249 25.6334 8.6378C25.4152 7.05075 24.8189 5.53934 23.8946 4.23083C22.9704 2.92232 21.7454 1.85501 20.3226 1.11873C18.8998 0.382461 17.321 -0.00121602 15.719 2.89526e-06ZM15.719 2C17.3013 2 18.848 2.46919 20.1636 3.34825C21.4792 4.2273 22.5045 5.47673 23.11 6.93854C23.7155 8.40034 23.874 10.0089 23.5653 11.5607C23.2566 13.1126 22.4947 14.538 21.3759 15.6569C20.257 16.7757 18.8316 17.5376 17.2797 17.8463C15.7279 18.155 14.1193 17.9965 12.6575 17.391C11.1957 16.7855 9.94629 15.7602 9.06724 14.4446C8.18819 13.129 7.719 11.5823 7.719 10C7.71702 8.94887 7.9226 7.9077 8.32394 6.9362C8.72528 5.9647 9.31448 5.082 10.0577 4.33874C10.801 3.59548 11.6837 3.00628 12.6552 2.60494C13.6267 2.2036 14.6679 1.99803 15.719 2Z" fill="black"/>
</svg>
