<svg width="23" height="26" viewBox="0 0 23 26" fill="none" xmlns="http://www.w3.org/2000/svg">
<path d="M11.062 0C9.73754 0.00526631 8.46883 0.533742 7.53228 1.47028C6.59574 2.40683 6.06727 3.67554 6.062 5V6H1.125L1.062 6.938L0.0619998 24.938L0 26H22.125L22.062 24.938L21.062 6.938L21 6H16.062V5C16.0567 3.67554 15.5283 2.40683 14.5917 1.47028C13.6552 0.533742 12.3865 0.00526631 11.062 0ZM11.062 2C11.8576 2 12.6207 2.31607 13.1833 2.87868C13.7459 3.44129 14.062 4.20435 14.062 5V6H8.062V5C8.062 4.20435 8.37807 3.44129 8.94068 2.87868C9.50329 2.31607 10.2664 2 11.062 2ZM3 8H6.062V11H8.062V8H14.062V11H16.062V8H19.125L20 24H2.125L3 8Z" fill="black"/>
</svg>
